<?xml version="1.0" encoding="UTF-8" standalone="no"?>
<!-- Created with Inkscape (http://www.inkscape.org/) -->

<svg
   version="1.1"
   id="svg9"
   width="300"
   height="168"
   viewBox="0 0 300 168"
   sodipodi:docname="pigmine-retangular.svg"
   inkscape:version="1.2.1 (9c6d41e410, 2022-07-14)"
   xmlns:inkscape="http://www.inkscape.org/namespaces/inkscape"
   xmlns:sodipodi="http://sodipodi.sourceforge.net/DTD/sodipodi-0.dtd"
   xmlns="http://www.w3.org/2000/svg"
   xmlns:svg="http://www.w3.org/2000/svg">
  <defs
     id="defs13" />
  <sodipodi:namedview
     id="namedview11"
     pagecolor="#ffffff"
     bordercolor="#000000"
     borderopacity="0.25"
     inkscape:showpageshadow="2"
     inkscape:pageopacity="0.0"
     inkscape:pagecheckerboard="0"
     inkscape:deskcolor="#d1d1d1"
     showgrid="false"
     inkscape:zoom="4.2173091"
     inkscape:cx="144.16776"
     inkscape:cy="96.744153"
     inkscape:window-width="1920"
     inkscape:window-height="1017"
     inkscape:window-x="-8"
     inkscape:window-y="-8"
     inkscape:window-maximized="1"
     inkscape:current-layer="g15" />
  <g
     inkscape:groupmode="layer"
     inkscape:label="Image"
     id="g15">
    <path
       style="fill:#ec9e9f;stroke:#e08685;stroke-width:1.63383;stroke-dasharray:none;stroke-opacity:1;fill-opacity:1"
       d="m 6.6214482,140.52404 0.2062088,-68.064974 39.179891,10e-7 -0.20621,31.663133 -25.157615,-0.2154 -0.206209,36.83263 z"
       id="path333"
       sodipodi:nodetypes="ccccccc" />
    <path
       style="fill:#ffffff;stroke:#e08685;stroke-width:1.6;stroke-dasharray:none;stroke-opacity:1;fill-opacity:1;opacity:1"
       d="M 21.257985,93.906634 V 81.936118 h 17.130221 v 12.176904 z"
       id="path1714"
       sodipodi:nodetypes="ccccc" />
    <path
       style="fill:#ec9e9f;stroke:#e08685;stroke-width:1.57482;stroke-dasharray:none;stroke-opacity:1;fill-opacity:1"
       d="M 50.346034,142.01487 50.759615,87.137638 H 63.373869 L 62.960287,142.21442 Z"
       id="path2442" />
    <path
       style="fill:#ec9e9f;stroke:#e08685;stroke-width:1.3;stroke-dasharray:none;stroke-opacity:1;fill-opacity:1"
       d="m 50.137624,83.584615 0.01471,-11.255512 H 63.567568 L 63.36118,83.474065 Z"
       id="path3170"
       sodipodi:nodetypes="ccccc" />
    <path
       style="fill:#ec9e9f;stroke:#e08685;stroke-width:1.3;stroke-dasharray:none;stroke-opacity:1;fill-opacity:1"
       d="m 68.660488,143.68463 -0.167465,-71.172457 43.540797,-0.167464 -0.16747,12.72731 -31.650805,0.334929 0,45.550372 c 23.445045,-0.7815 0.414027,-0.2582 23.779975,-0.5024 l -0.83732,-14.90434 -14.736889,0.33493 0.167465,-9.54549 h 23.947434 l 0,36.84221 z"
       id="path3176"
       sodipodi:nodetypes="ccccccccccccc" />
    <path
       style="fill:#ec9e9f;stroke:#e08685;stroke-width:1.3;stroke-dasharray:none;stroke-opacity:1;fill-opacity:1"
       d="m 119.73719,144.18702 2.00958,-71.339917 h 18.08617 l 9.54549,34.162777 11.72252,-34.497707 15.23928,-0.502393 1.50718,72.8471 -17.08139,-0.16747 -0.33493,-27.96658 -10.38281,17.24885 -11.72252,-18.4211 -1.33971,29.13884 z"
       id="path3178"
       sodipodi:nodetypes="ccccccccccccc" />
    <path
       style="fill:#ec9e9f;stroke:#e08685;stroke-width:1.3;stroke-dasharray:none;stroke-opacity:1;fill-opacity:1"
       d="m 204.64175,144.68942 -0.5024,-71.842317 12.55984,-0.167465 16.57901,54.258532 0.50239,-53.923603 11.72252,-0.334929 -0.66986,73.182032 -14.06702,0 -15.57421,-49.569523 0.16746,48.564733 z"
       id="path3217"
       sodipodi:nodetypes="ccccccccccc" />
    <path
       style="fill:#ec9e9f;stroke:#e08685;stroke-width:1.3;stroke-dasharray:none;stroke-opacity:1;fill-opacity:1"
       d="m 252.70409,72.679638 -0.66986,74.186822 40.52643,-0.33493 -0.50239,-12.72731 -27.63166,-0.66986 v -21.10054 l 12.72731,-0.16746 0.16746,-11.05267 -12.05745,-0.16746 -0.16746,-16.746464 29.13884,0.167465 -0.5024,-12.559845 -40.52643,-0.167465 z"
       id="path3219" />
    <rect
       style="fill:#904d4d;fill-opacity:1;stroke:#904d4d;stroke-width:1.13206;stroke-dasharray:none;stroke-opacity:1"
       id="rect18698"
       width="3.0967469"
       height="3.0967467"
       x="50.124081"
       y="76.901718" />
    <rect
       style="fill:#904d4d;fill-opacity:1;stroke:#904d4d;stroke-width:1.13206;stroke-dasharray:none;stroke-opacity:1"
       id="rect18698-6"
       width="3.0967469"
       height="3.0967467"
       x="60.291214"
       y="76.94355" />
    <path
       style="fill:#ec9e9f;fill-opacity:1;stroke:#e08685;stroke-width:1.57482;stroke-dasharray:none;stroke-opacity:1"
       d="m 184.27531,144.92465 0.41358,-54.877234 h 12.61426 l -0.41358,55.076784 z"
       id="path2442-4" />
    <path
       style="fill:#ec9e9f;fill-opacity:1;stroke:#e08685;stroke-width:1.3;stroke-dasharray:none;stroke-opacity:1"
       d="m 184.0669,86.494393 0.0147,-11.255512 h 13.41524 l -0.20639,11.144962 z"
       id="path3170-3"
       sodipodi:nodetypes="ccccc" />
    <rect
       style="fill:#904d4d;fill-opacity:1;stroke:#904d4d;stroke-width:1.13206;stroke-dasharray:none;stroke-opacity:1"
       id="rect18698-4"
       width="3.0967469"
       height="3.0967467"
       x="184.05336"
       y="79.811493" />
    <rect
       style="fill:#904d4d;fill-opacity:1;stroke:#904d4d;stroke-width:1.13206;stroke-dasharray:none;stroke-opacity:1"
       id="rect18698-6-6"
       width="3.0967469"
       height="3.0967467"
       x="194.22049"
       y="79.853325" />
  </g>
</svg>
